<?xml version="1.0" standalone="no"?>
<!DOCTYPE svg PUBLIC "-//W3C//DTD SVG 20010904//EN"
 "http://www.w3.org/TR/2001/REC-SVG-20010904/DTD/svg10.dtd">
<svg version="1.0" xmlns="http://www.w3.org/2000/svg"
 width="1799.000000pt" height="2144.000000pt" viewBox="0 0 1799.000000 2144.000000"
 preserveAspectRatio="xMidYMid meet">

<g transform="translate(0.000000,2144.000000) scale(0.100000,-0.100000)"
fill="#000000" stroke="none">
<path d="M1035 20983 c-44 -25 -125 -72 -179 -105 l-99 -58 2209 0 c1865 0
2205 2 2189 14 -11 7 -81 48 -155 91 -74 43 -144 84 -155 91 -16 12 -326 14
-1875 14 l-1855 0 -80 -47z"/>
<path d="M5890 20984 c-41 -25 -95 -56 -120 -69 -25 -13 -70 -40 -100 -59
l-55 -35 345 1 c201 1 305 4 250 8 -52 3 663 6 1590 6 927 0 1627 -3 1555 -6
-82 -4 19 -7 270 -8 l400 -2 -30 20 c-16 12 -59 37 -95 57 -36 20 -101 58
-146 85 l-81 48 -1854 0 -1854 0 -75 -46z"/>
<path d="M17469 20760 c-25 -36 -80 -114 -123 -175 -42 -60 -98 -140 -124
-177 l-47 -67 -3112 -1 -3113 0 -2 -4082 c-2 -2984 -6 -4088 -14 -4102 -9 -15
-10 -8 -6 35 5 58 -5 61 -19 7 -6 -25 -7 -18 -3 27 7 90 12 175 7 130 -4 -32
-7 -36 -13 -20 -5 12 -6 -5 -3 -40 3 -44 2 -56 -6 -45 -7 9 -11 10 -11 3 0 -6
-17 -14 -37 -16 -35 -4 -35 -4 5 -3 l42 1 -1 -40 c0 -22 -3 -34 -6 -27 -3 7
-22 12 -46 12 -29 0 -38 -3 -28 -9 21 -14 1 -35 -49 -51 -22 -7 -40 -17 -40
-22 0 -4 -19 -9 -42 -9 -39 -1 -40 -2 -13 -8 l30 -6 -25 -17 c-16 -12 -26 -14
-31 -7 -4 7 -9 7 -12 2 -3 -5 -7 -243 -8 -529 l-1 -519 2263 -3 c2079 -3 3036
3 2869 19 -61 5 -42 14 25 11 22 -1 25 0 12 6 -16 7 -8 19 57 87 42 43 76 84
76 90 0 7 18 18 41 25 36 12 40 16 34 39 -3 15 -2 21 3 14 5 -9 20 1 48 32 44
49 42 60 -11 68 -27 4 -27 4 8 6 20 0 37 -3 37 -9 0 -5 8 -10 18 -10 15 1 15
2 -3 12 -18 11 -18 12 -1 18 10 3 -10 7 -45 7 -35 1 -158 4 -274 7 -115 4
-905 13 -1755 21 -2865 27 -3070 30 -3070 52 0 8 -5 11 -12 7 -10 -6 -10 -4 0
7 8 9 12 54 12 149 0 188 11 217 50 140 11 -22 26 -40 34 -40 9 0 12 -12 11
-36 -1 -19 3 -38 8 -41 6 -3 7 -1 3 5 -4 7 -3 12 3 12 5 0 49 75 97 168 48 92
137 262 199 377 186 349 190 358 177 363 -9 3 -12 39 -12 128 l0 124 2540 0
2540 0 0 -124 c0 -69 -4 -126 -9 -128 -6 -2 35 -88 91 -193 55 -104 150 -284
210 -400 61 -115 115 -214 120 -220 6 -5 -33 76 -85 180 -105 212 -131 266
-129 278 1 4 -2 7 -8 7 -5 0 -6 7 -3 17 5 12 3 14 -8 8 -11 -6 -11 -5 -2 5 6
7 9 19 6 26 -3 8 -1 14 5 14 11 0 10 25 -1 36 -6 7 -11 -10 -8 -28 0 -4 -7 -4
-16 -1 -11 4 -13 8 -5 11 16 5 15 22 -1 22 -8 0 -14 6 -14 13 0 13 11 17 52
19 19 0 46 34 136 170 14 21 28 36 31 32 6 -5 32 30 73 95 6 9 12 18 15 21 18
16 50 71 50 84 0 9 7 19 15 22 8 4 16 16 16 28 1 16 3 14 9 -9 7 -26 8 -23 9
22 0 28 5 53 10 55 5 2 12 1272 16 2953 4 1623 9 2952 11 2954 2 2 4 -209 4
-470 -1 -1052 21 -5668 27 -5719 l6 -55 9 39 c13 59 17 55 13 -10 -2 -33 -2
-48 1 -34 10 49 26 90 33 86 10 -7 51 22 51 35 0 17 28 41 32 27 2 -6 23 13
46 42 24 30 52 60 62 67 11 8 20 20 20 28 0 7 6 15 13 17 9 4 13 750 15 3679
1 2021 1 3807 0 3969 l-3 295 -46 -65z m-869 -1045 l0 -135 -422 0 c-493 -1
-812 -9 -816 -21 -2 -5 -30 -9 -62 -9 -32 0 -62 -4 -65 -10 -4 -7 -635 -10
-1861 -10 l-1854 0 0 160 0 160 2540 0 2540 0 0 -135z m0 -1400 l0 -125 -387
-1 c-490 -1 -711 -6 -793 -18 -36 -6 -130 -15 -210 -20 -169 -12 -3446 -25
-3592 -15 l-98 7 0 148 0 149 2540 0 2540 0 0 -125z m0 -1400 l0 -125 -549 0
c-337 0 -560 -4 -576 -10 -14 -5 -82 -13 -150 -16 -69 -4 -125 -11 -125 -16 0
-4 -828 -8 -1840 -8 l-1840 0 0 150 0 150 2540 0 2540 0 0 -125z m0 -1390 l0
-124 -542 -4 c-299 -2 -561 -7 -583 -10 -22 -3 -93 -9 -157 -13 -65 -4 -118
-11 -118 -16 0 -4 -828 -8 -1840 -8 l-1840 0 0 150 0 150 2540 0 2540 0 0
-125z m0 -1389 l0 -124 -572 -5 c-465 -5 -592 -9 -673 -22 -84 -14 -238 -18
-950 -25 -1046 -10 -2670 -12 -2793 -4 l-92 7 0 148 0 149 2540 0 2540 0 0
-124z m627 -1468 c-2 -18 -4 -4 -4 32 0 36 2 50 4 33 2 -18 2 -48 0 -65z
m-456 -355 c13 -16 12 -17 -3 -4 -17 13 -22 21 -14 21 2 0 10 -8 17 -17z
m-5874 -355 c-2 -24 -4 -5 -4 42 0 47 2 66 4 43 2 -24 2 -62 0 -85z m30 60
c-2 -13 -4 -3 -4 22 0 25 2 35 4 23 2 -13 2 -33 0 -45z m190 -193 c0 -8 -4
-12 -9 -9 -5 3 -6 10 -3 15 9 13 12 11 12 -6z m-57 -30 c0 -5 -5 -3 -10 5 -5
8 -10 20 -10 25 0 6 5 3 10 -5 5 -8 10 -19 10 -25z m24 10 c9 -14 13 -25 8
-25 -5 0 -14 11 -20 25 -6 14 -10 25 -8 25 2 0 11 -11 20 -25z m-5 -39 c9 -10
8 -16 -4 -26 -8 -7 -12 -17 -8 -24 3 -6 2 -7 -2 -3 -15 13 -14 37 1 37 9 0 12
5 9 10 -4 6 -10 8 -15 5 -5 -3 -11 -1 -15 5 -9 15 21 12 34 -4z m4960 -392
c10 -9 -35 -3 -49 6 -11 8 -7 9 15 4 17 -4 32 -8 34 -10z"/>
<path d="M15328 15383 c6 -2 18 -2 25 0 6 3 1 5 -13 5 -14 0 -19 -2 -12 -5z"/>
<path d="M5124 20748 l-19 -23 23 19 c21 18 27 26 19 26 -2 0 -12 -10 -23 -22z"/>
<path d="M5640 20766 c0 -2 8 -10 18 -17 15 -13 16 -12 3 4 -13 16 -21 21 -21
13z"/>
<path d="M9979 20753 c-29 -35 -41 -53 -36 -53 2 0 17 16 31 35 28 36 31 49 5
18z"/>
<path d="M1021 20716 c-17 -21 -9 -77 12 -90 15 -9 21 -7 33 8 37 50 -7 128
-45 82z"/>
<path d="M4859 20706 c-14 -29 -4 -75 17 -83 21 -8 54 26 54 57 0 51 -52 70
-71 26z"/>
<path d="M5872 20718 c-16 -16 -15 -60 2 -84 24 -32 51 -7 51 47 0 36 -3 44
-20 47 -11 1 -26 -3 -33 -10z"/>
<path d="M9709 20703 c-18 -49 22 -101 56 -73 18 15 20 71 3 88 -21 21 -48 14
-59 -15z"/>
<path d="M4991 20580 c-64 -79 -118 -137 -124 -133 -6 4 -7 1 -2 -6 4 -7 -2
-22 -16 -37 -12 -13 -20 -24 -16 -24 5 0 145 167 212 254 17 21 38 49 48 62
10 13 17 24 15 24 -3 0 -55 -63 -117 -140z"/>
<path d="M5700 20686 c0 -2 8 -10 18 -17 15 -13 16 -12 3 4 -13 16 -21 21 -21
13z"/>
<path d="M9854 20593 c-43 -54 -84 -106 -92 -115 -9 -10 -13 -18 -9 -18 5 0
56 62 150 182 21 26 36 48 34 48 -3 0 -40 -44 -83 -97z"/>
<path d="M880 20646 c0 -2 8 -10 18 -17 15 -13 16 -12 3 4 -13 16 -21 21 -21
13z"/>
<path d="M5730 20646 c0 -2 8 -10 18 -17 15 -13 16 -12 3 4 -13 16 -21 21 -21
13z"/>
<path d="M925 20590 c10 -11 20 -20 23 -20 3 0 -3 9 -13 20 -10 11 -20 20 -23
20 -3 0 3 -9 13 -20z"/>
<path d="M5760 20607 c0 -2 14 -16 32 -33 l32 -29 -25 32 c-20 27 -39 41 -39
30z"/>
<path d="M970 20536 c0 -2 8 -10 18 -17 15 -13 16 -12 3 4 -13 16 -21 21 -21
13z"/>
<path d="M1000 20496 c0 -2 8 -10 18 -17 15 -13 16 -12 3 4 -13 16 -21 21 -21
13z"/>
<path d="M5860 20486 c0 -2 8 -10 18 -17 15 -13 16 -12 3 4 -13 16 -21 21 -21
13z"/>
<path d="M5036 20464 c-20 -19 -21 -68 -1 -84 39 -32 81 29 51 75 -19 29 -29
31 -50 9z"/>
<path d="M9884 20455 c-31 -48 19 -115 53 -69 18 25 16 58 -5 77 -24 22 -29
21 -48 -8z"/>
<path d="M852 20458 c-16 -16 -15 -50 2 -74 23 -30 51 -7 51 42 0 31 -4 40
-20 42 -11 1 -26 -3 -33 -10z"/>
<path d="M5698 20446 c-8 -20 -8 -32 0 -51 22 -48 66 -21 60 37 -4 44 -42 53
-60 14z"/>
<path d="M9714 20418 l-29 -33 33 29 c30 28 37 36 29 36 -2 0 -16 -15 -33 -32z"/>
<path d="M5900 20436 c0 -2 8 -10 18 -17 15 -13 16 -12 3 4 -13 16 -21 21 -21
13z"/>
<path d="M1120 18795 c0 -1331 -2 -1565 -14 -1565 -8 0 -16 -7 -20 -15 -3 -8
-15 -15 -26 -15 -11 0 -20 -6 -20 -13 0 -7 -14 -18 -30 -24 -17 -6 -30 -18
-30 -27 0 -13 -11 -16 -50 -16 -37 0 -50 -4 -50 -14 0 -8 -16 -20 -36 -26 -19
-7 -38 -18 -41 -26 -13 -35 -23 -7 -23 68 0 45 -2 79 -4 77 -16 -16 -20 -804
-23 -4851 l-3 -4578 2215 0 2215 0 -1 5733 c-1 4858 -5 6089 -17 5917 -2 -20
-4 -22 -12 -10 -5 8 -10 11 -10 5 0 -6 -21 -9 -50 -7 -32 3 -50 0 -50 -7 0 -6
17 -11 38 -11 46 -1 26 -15 -37 -25 -24 -4 -52 -15 -62 -24 -11 -9 -38 -19
-62 -22 l-42 -6 43 -1 c53 -2 56 -22 2 -22 -38 0 -40 -2 -42 -32 -1 -18 -5 8
-8 57 -6 88 -6 87 -10 -55 -2 -80 -5 -122 -7 -95 -1 28 -6 75 -10 105 l-8 55
-6 -65 c-3 -37 -6 35 -7 165 -1 127 -5 389 -9 583 l-6 352 -1844 0 -1843 0 0
-1565z m3598 -67 l-3 -1563 -1757 -3 -1758 -2 0 1565 0 1565 1760 0 1760 0 -2
-1562z m-563 -1981 c-291 -12 -2280 -12 -2510 0 -132 7 210 10 1275 10 1066 0
1396 -3 1235 -10z m565 -2122 l0 -1625 -1760 0 -1760 0 0 1625 0 1625 1760 0
1760 0 0 -1625z m-280 -2066 c-889 -37 -2345 -37 -3010 0 -96 5 485 8 1520 8
932 0 1593 -3 1490 -8z m280 -2179 l0 -1670 -1760 0 -1760 0 0 1670 0 1670
1760 0 1760 0 0 -1670z m-195 -2111 c-592 -38 -2771 -38 -3170 1 -44 4 678 7
1605 7 927 0 1631 -3 1565 -8z"/>
<path d="M5979 20348 c-1 -7 -2 -24 -3 -38 -1 -14 -4 -738 -6 -1610 -2 -872
-6 -1541 -7 -1487 -5 122 -23 121 -23 -1 0 -48 -4 -92 -8 -99 -4 -6 -6 28 -4
75 2 48 -1 82 -5 76 -4 -6 -15 -14 -23 -17 -12 -4 -11 -6 3 -6 32 -2 17 -20
-20 -24 l-38 -4 40 -1 40 -2 -25 -15 c-14 -8 -33 -18 -42 -21 -10 -3 -18 -10
-18 -15 0 -5 -18 -9 -40 -9 -53 0 -51 -18 3 -23 l42 -4 -42 -1 c-28 -1 -43 -7
-43 -15 0 -7 -20 -20 -44 -29 -44 -16 -45 -16 -49 5 -2 12 -2 -7 0 -43 2 -36
0 -76 -6 -90 -8 -21 -9 -17 -5 20 2 25 0 68 -5 95 l-9 50 -2 -55 c-1 -39 -4
-49 -9 -35 -6 15 -10 8 -14 -30 -4 -27 -10 -2114 -13 -4637 l-7 -4588 2223 0
2223 0 -6 3503 c-4 1926 -8 4542 -8 5812 -1 1271 -5 2292 -9 2270 l-7 -40 -2
50 -1 50 -45 -3 c-47 -4 -64 -22 -20 -22 14 0 25 -4 25 -10 0 -5 -11 -10 -25
-10 -16 0 -25 -6 -25 -15 0 -13 -10 -16 -49 -14 -43 2 -53 -1 -81 -29 -25 -25
-40 -32 -70 -32 l-39 0 -4 -77 -3 -78 -2 80 c0 44 -1 322 -1 618 l-1 537
-1845 0 c-1469 0 -1845 -3 -1846 -12z m3591 -2548 l0 -2490 -1760 0 -1760 0 0
2490 0 2490 1760 0 1760 0 0 -2490z m-340 -3401 c-733 -28 -1645 -35 -2335
-18 -885 21 -713 26 900 26 952 0 1554 -3 1435 -8z m340 -2819 l0 -2460 -1760
0 -1760 0 0 2460 0 2460 1760 0 1760 0 0 -2460z m-235 -3361 c-799 -38 -2553
-38 -3115 0 -63 5 648 8 1580 8 932 0 1623 -3 1535 -8z"/>
<path d="M5121 19473 c-1 -26 -6 -32 -28 -36 l-28 -4 28 -2 c30 -1 41 14 34
51 -3 18 -5 16 -6 -9z"/>
<path d="M9933 19433 c9 -2 23 -2 30 0 6 3 -1 5 -18 5 -16 0 -22 -2 -12 -5z"/>
<path d="M4898 19343 c12 -2 32 -2 45 0 12 2 2 4 -23 4 -25 0 -35 -2 -22 -4z"/>
<path d="M5921 17294 c0 -11 3 -14 6 -6 3 7 2 16 -1 19 -3 4 -6 -2 -5 -13z"/>
<path d="M5641 17134 c0 -11 3 -14 6 -6 3 7 2 16 -1 19 -3 4 -6 -2 -5 -13z"/>
<path d="M5661 17134 c0 -11 3 -14 6 -6 3 7 2 16 -1 19 -3 4 -6 -2 -5 -13z"/>
<path d="M898 17133 c12 -2 32 -2 45 0 12 2 2 4 -23 4 -25 0 -35 -2 -22 -4z"/>
<path d="M17272 12610 c0 -19 2 -27 5 -17 2 9 2 25 0 35 -3 9 -5 1 -5 -18z"/>
<path d="M10923 12520 c0 -25 2 -35 4 -22 2 12 2 32 0 45 -2 12 -4 2 -4 -23z"/>
<path d="M10892 12505 c0 -16 2 -22 5 -12 2 9 2 23 0 30 -3 6 -5 -1 -5 -18z"/>
<path d="M10865 12490 c-3 -5 -1 -10 4 -10 6 0 11 5 11 10 0 6 -2 10 -4 10 -3
0 -8 -4 -11 -10z"/>
<path d="M16771 12391 c-9 -6 -10 -11 -2 -15 6 -4 11 -2 11 4 0 6 5 8 12 4 7
-4 8 -3 4 4 -8 14 -7 14 -25 3z"/>
<path d="M10800 12206 c0 -2 18 -6 40 -8 22 -2 40 0 40 4 0 5 -18 8 -40 8 -22
0 -40 -2 -40 -4z"/>
<path d="M10658 12123 c12 -2 32 -2 45 0 12 2 2 4 -23 4 -25 0 -35 -2 -22 -4z"/>
<path d="M17030 11754 c0 -6 7 -19 16 -30 14 -18 14 -18 3 6 -14 31 -19 36
-19 24z"/>
<path d="M11000 11666 c7 -7 13 -7 20 0 6 6 3 10 -10 10 -13 0 -16 -4 -10 -10z"/>
<path d="M10974 11632 c-1 -15 1 -21 3 -14 3 6 9 9 15 6 6 -4 5 2 -1 15 -15
27 -16 27 -17 -7z"/>
<path d="M16145 11410 c-13 -6 -15 -9 -5 -9 8 0 22 4 30 9 18 12 2 12 -25 0z"/>
<path d="M16248 11413 c6 -2 18 -2 25 0 6 3 1 5 -13 5 -14 0 -19 -2 -12 -5z"/>
<path d="M16508 11413 c6 -2 18 -2 25 0 6 3 1 5 -13 5 -14 0 -19 -2 -12 -5z"/>
<path d="M16168 11383 c7 -3 16 -2 19 1 4 3 -2 6 -13 5 -11 0 -14 -3 -6 -6z"/>
<path d="M15848 11033 c7 -3 16 -2 19 1 4 3 -2 6 -13 5 -11 0 -14 -3 -6 -6z"/>
<path d="M17468 10522 c-36 -56 -151 -222 -246 -353 -26 -36 -50 -66 -54 -67
-5 -1 -1405 -2 -3113 -2 l-3105 0 -1 -4042 c0 -2224 -4 -4065 -7 -4093 l-7
-50 -13 58 c-8 32 -11 82 -8 115 5 57 5 57 -5 12 -5 -25 -8 -63 -6 -85 2 -22
1 -53 -3 -70 l-8 -30 -1 28 c-1 23 -5 28 -23 25 -13 -2 -27 -13 -33 -25 -5
-13 -15 -23 -22 -23 -7 0 -13 -6 -13 -13 0 -7 -13 -18 -30 -24 -16 -6 -30 -18
-30 -27 0 -12 -11 -16 -48 -16 -36 0 -50 -5 -59 -19 -9 -15 -13 -144 -13 -513
0 -271 -3 -508 -6 -526 l-5 -32 1799 0 c1814 0 3422 10 3302 21 -56 5 -49 6
55 9 103 3 111 4 56 9 l-65 6 158 159 c136 137 156 161 140 168 -15 6 -13 7 8
5 15 -2 25 0 22 4 -3 5 5 9 18 9 18 0 20 2 8 10 -8 5 -26 7 -40 5 -14 -3 -7 2
15 10 l40 15 -38 -6 c-21 -3 -53 -1 -70 5 -19 5 -341 12 -767 15 -1690 15
-4302 45 -4308 50 -3 3 0 6 7 6 7 0 9 5 6 11 -8 13 -7 260 1 307 8 42 19 40
44 -8 20 -39 33 -49 44 -31 7 11 46 2 46 -10 0 -13 -14 -11 -28 3 -7 7 -13 8
-13 2 -5 -36 -4 -64 4 -64 4 0 5 -6 1 -12 -5 -9 -4 -10 3 -3 6 6 73 129 149
275 76 146 157 301 181 345 24 44 69 131 100 193 l58 112 2518 -2 2518 -3 19
-35 c10 -19 45 -84 78 -145 33 -60 113 -211 177 -335 64 -124 121 -229 126
-235 12 -12 -16 49 -89 193 -29 57 -50 108 -46 115 4 7 4 9 0 5 -10 -9 -59 81
-58 105 0 9 -2 17 -6 17 -4 0 -13 10 -21 21 -10 18 -10 23 0 30 10 6 10 11 -1
24 -9 11 -10 19 -3 26 7 7 13 7 17 1 11 -18 53 11 66 45 6 19 23 46 37 61 37
40 83 111 83 128 0 7 8 14 18 14 9 0 28 19 42 43 14 23 40 56 59 74 19 18 31
36 28 39 -4 4 -1 16 4 27 9 16 13 17 20 6 7 -11 9 -9 9 8 0 12 8 29 18 39 16
17 17 176 22 2993 l5 2976 8 -1640 c4 -902 10 -2314 14 -3138 3 -823 8 -1495
11 -1493 2 3 4 47 4 98 l1 93 8 -90 c11 -113 16 -132 19 -75 l3 45 7 -45 7
-45 1 43 c2 31 6 42 18 42 9 0 22 17 31 40 10 26 22 40 34 40 23 0 84 76 67
83 -8 2 -1 11 17 22 17 10 41 34 55 54 l25 36 3 3953 c1 2173 -1 3952 -5 3951
-5 0 -25 -26 -45 -57z m-241 -7954 c-3 -8 -6 -5 -6 6 -1 11 2 17 5 13 3 -3 4
-12 1 -19z m-6330 -850 c-2 -24 -4 -5 -4 42 0 47 2 66 4 43 2 -24 2 -62 0 -85z
m30 60 c-2 -13 -4 -3 -4 22 0 25 2 35 4 23 2 -13 2 -33 0 -45z m146 -274 c3
-3 3 -13 0 -21 -5 -12 -7 -12 -14 -1 -15 23 -4 40 14 22z m4924 -330 c-3 -3
-12 -4 -19 -1 -8 3 -5 6 6 6 11 1 17 -2 13 -5z m26 -41 c-7 -2 -19 -2 -25 0
-7 3 -2 5 12 5 14 0 19 -2 13 -5z"/>
<path d="M3680 7210 c-91 -3 -155 -7 -142 -8 22 -2 22 -3 7 -32 -9 -17 -20
-28 -25 -25 -9 6 -34 -16 -48 -42 -6 -10 -28 -17 -61 -21 -53 -5 -72 -22 -24
-22 l27 0 -24 -17 c-13 -9 -42 -17 -64 -16 l-41 0 38 -4 c50 -6 47 -23 -5 -23
-47 0 -45 -9 4 -20 l33 -8 -37 -1 c-31 -1 -38 -5 -38 -21 0 -17 -7 -20 -40
-20 -22 0 -40 -4 -40 -10 0 -5 11 -10 25 -10 14 0 25 -4 25 -10 0 -5 -11 -10
-25 -10 -18 0 -25 -5 -25 -20 0 -15 -7 -20 -29 -20 -29 0 -56 -20 -29 -20 8
-1 6 -6 -6 -15 -11 -8 -39 -15 -63 -15 l-43 0 0 -40 0 -40 -77 -2 -78 -2 80
-7 c59 -5 39 -6 -80 -5 -88 1 -140 -1 -115 -4 25 -4 -290 -8 -700 -10 -410 -1
-828 -4 -929 -6 -101 -2 -189 0 -195 5 -8 7 -10 -212 -9 -772 2 -823 -1 -944
-23 -926 -9 7 -14 5 -19 -10 -3 -12 -11 -21 -16 -21 -6 0 -26 -12 -45 -27 -22
-16 -49 -27 -70 -27 -43 -1 -45 -16 -1 -17 21 -1 25 -3 12 -6 -11 -3 -27 -10
-35 -17 -8 -7 -27 -17 -42 -24 -16 -6 -28 -18 -28 -27 0 -8 -4 -15 -10 -15 -5
0 -10 -7 -10 -16 0 -8 -4 -13 -9 -10 -5 3 -12 -11 -16 -32 -4 -20 -10 -927
-12 -2014 l-3 -1978 4700 0 4700 0 0 3235 0 3235 -3077 -2 c-1693 -1 -3152 -5
-3243 -8z m-2690 -4715 c7 -8 22 -15 35 -15 12 0 37 -8 55 -17 24 -11 35 -13
38 -5 2 8 12 8 32 -3 16 -8 36 -15 45 -15 9 0 16 -9 16 -22 1 -15 4 -11 9 12
l7 35 2 -35 c2 -28 4 -31 10 -15 9 22 21 -256 21 -482 l0 -153 4045 0 4044 0
154 -232 c85 -128 157 -239 161 -245 6 -10 -870 -13 -4363 -13 l-4371 0 0 610
0 610 24 0 c13 0 29 -7 36 -15z"/>
<path d="M650 7136 c0 -2 8 -10 18 -17 15 -13 16 -12 3 4 -13 16 -21 21 -21
13z"/>
<path d="M3360 7100 c0 -5 18 -10 40 -10 22 0 40 5 40 10 0 6 -18 10 -40 10
-22 0 -40 -4 -40 -10z"/>
<path d="M862 7088 c-17 -17 -15 -73 4 -89 23 -19 48 1 52 40 5 50 -27 78 -56
49z"/>
<path d="M700 7060 c6 -11 13 -20 16 -20 2 0 0 9 -6 20 -6 11 -13 20 -16 20
-2 0 0 -9 6 -20z"/>
<path d="M760 6964 c21 -37 44 -72 50 -78 6 -6 -7 22 -30 61 -23 40 -46 75
-50 78 -5 3 9 -24 30 -61z"/>
<path d="M3213 6953 c9 -2 25 -2 35 0 9 3 1 5 -18 5 -19 0 -27 -2 -17 -5z"/>
<path d="M3158 6873 c7 -3 16 -2 19 1 4 3 -2 6 -13 5 -11 0 -14 -3 -6 -6z"/>
<path d="M829 6855 c5 -11 17 -29 26 -40 l16 -20 -10 20 c-5 11 -17 29 -26 40
l-16 20 10 -20z"/>
<path d="M672 6838 c-18 -18 -14 -63 6 -81 24 -22 39 -21 52 2 22 42 6 91 -30
91 -9 0 -21 -5 -28 -12z"/>
<path d="M785 4971 c-3 -5 -1 -12 5 -16 5 -3 10 1 10 9 0 18 -6 21 -15 7z"/>
<path d="M728 4953 c6 -2 18 -2 25 0 6 3 1 5 -13 5 -14 0 -19 -2 -12 -5z"/>
<path d="M720 4929 c0 -5 18 -9 40 -9 52 0 52 15 0 17 -22 0 -40 -3 -40 -8z"/>
<path d="M10923 2280 c0 -25 2 -35 4 -22 2 12 2 32 0 45 -2 12 -4 2 -4 -23z"/>
<path d="M16760 2144 c0 -5 5 -15 12 -22 8 -8 8 -15 0 -24 -8 -11 -7 -14 8
-14 13 0 17 6 14 20 -4 22 -34 57 -34 40z"/>
<path d="M10658 1853 c12 -2 32 -2 45 0 12 2 2 4 -23 4 -25 0 -35 -2 -22 -4z"/>
<path d="M16996 1587 c3 -10 9 -15 12 -12 3 3 0 11 -7 18 -10 9 -11 8 -5 -6z"/>
<path d="M11027 1429 c7 -7 15 -10 18 -7 3 3 -2 9 -12 12 -14 6 -15 5 -6 -5z"/>
<path d="M11004 1412 c3 -5 0 -13 -6 -15 -9 -4 -10 -6 -1 -6 17 -1 25 16 12
25 -7 4 -9 3 -5 -4z"/>
<path d="M11015 1379 c-4 -6 -5 -12 -2 -15 2 -3 7 2 10 11 7 17 1 20 -8 4z"/>
<path d="M10986 1338 c3 -5 10 -6 15 -3 13 9 11 12 -6 12 -8 0 -12 -4 -9 -9z"/>
<path d="M16145 1171 c-17 -7 -16 -9 9 -15 16 -4 31 -5 34 -1 3 3 -3 5 -14 6
-15 1 -13 3 6 9 20 6 21 8 5 8 -11 0 -29 -3 -40 -7z"/>
</g>
</svg>
